<svg id="Layer_1" data-name="Layer 1" xmlns="http://www.w3.org/2000/svg" viewBox="0 0 247.6 86.47"><defs><style>.cls-1{fill:#2fac86;}.cls-2{fill:none;stroke:#2fac86;stroke-miterlimit:10;}</style></defs><title>logo_line_color</title><path class="cls-1" d="M116.85,389.12V440.4H94.21V389.12h22.64Z" transform="translate(-69.18 -384.46)"/><path class="cls-1" d="M252.78,440.36a15,15,0,0,1,2.64-8.92,8.22,8.22,0,0,1,6.9-3.6q6.36,0,7.57,6.72h-11.5a16.78,16.78,0,0,0-1.08,5.8h35.32a30.45,30.45,0,0,0-31-30.26A31,31,0,0,0,239,419.24a30.16,30.16,0,0,0-9.18,21.12h23Z" transform="translate(-69.18 -384.46)"/><path class="cls-1" d="M188.71,440.33v-2.66q0-5.21,4.24-5.21t4.3,5.21v2.66h22.64v-0.42q0-13.08-6.11-20.4Q206,410.13,193,410.13a25.57,25.57,0,0,0-19.13,8.08,27.52,27.52,0,0,0-7.81,19.89v2.23h22.64Z" transform="translate(-69.18 -384.46)"/><path class="cls-1" d="M141.49,406.13a11.32,11.32,0,0,0,8.14-3,10.71,10.71,0,0,0-.18-15.41,11.4,11.4,0,0,0-15.92,0,10.71,10.71,0,0,0-.18,15.41A11.32,11.32,0,0,0,141.49,406.13Z" transform="translate(-69.18 -384.46)"/><rect class="cls-1" x="60.93" y="26.94" width="22.64" height="28.93"/><line class="cls-2" x1="4.12" y1="55.94" x2="243.48" y2="55.94"/><rect class="cls-2" x="25.52" y="55.87" width="21.53" height="30.1"/><rect class="cls-2" x="61.52" y="55.87" width="21.44" height="30.1"/><polygon class="cls-2" points="118.9 85.97 97.46 85.97 97.46 55.95 118.9 55.57 118.9 85.97"/><rect class="cls-2" x="128.71" y="55.57" width="21.38" height="30.4"/><path class="cls-2" d="M231,439.49c0,0.38-.05.76-0.05,1.15a28.41,28.41,0,0,0,8.81,21.22,30,30,0,0,0,21.77,8.57,30.81,30.81,0,0,0,19.31-6.73L268.43,449a9.63,9.63,0,0,1-7,2.92,9.17,9.17,0,0,1-6.89-3.17c-1.91-2-2.64-4.6-2.64-8.32" transform="translate(-69.18 -384.46)"/><path class="cls-2" d="M258.28,439.63a7.75,7.75,0,0,0,.49,4.46h32.59q0.23-2.76.23-4c0-.19,0-0.38,1-0.57" transform="translate(-69.18 -384.46)"/><circle class="cls-1" cx="73.98" cy="440.33" r="4.8" transform="translate(-436.23 125.57) rotate(-89.44)"/><circle class="cls-1" cx="311.98" cy="440.33" r="4.8" transform="translate(-200.54 363.56) rotate(-89.44)"/></svg>