<svg id="Layer_1" data-name="Layer 1" xmlns="http://www.w3.org/2000/svg" viewBox="0 0 247.99 86.07"><defs><style>.cls-1{fill:#fff;}.cls-2{fill:none;stroke:#fff;stroke-miterlimit:10;}</style></defs><title>logo_line_white</title><path class="cls-1" d="M116.76,185.08v51.28H94.11V185.08h22.64Z" transform="translate(-68.69 -180.42)"/><path class="cls-1" d="M252.68,236.32a15,15,0,0,1,2.64-8.92,8.22,8.22,0,0,1,6.9-3.6q6.36,0,7.57,6.72h-11.5a16.78,16.78,0,0,0-1.08,5.8h35.32a30.45,30.45,0,0,0-31-30.26,31,31,0,0,0-22.67,9.14,30.16,30.16,0,0,0-9.18,21.12h23Z" transform="translate(-68.69 -180.42)"/><path class="cls-1" d="M188.61,236.29v-2.66q0-5.21,4.24-5.21t4.3,5.21v2.66h22.64v-0.42q0-13.08-6.11-20.4-7.81-9.38-20.76-9.38a25.57,25.57,0,0,0-19.13,8.08A27.52,27.52,0,0,0,166,234.05v2.23h22.64Z" transform="translate(-68.69 -180.42)"/><path class="cls-1" d="M141.39,202.09a11.32,11.32,0,0,0,8.14-3,10.71,10.71,0,0,0-.18-15.41,11.4,11.4,0,0,0-15.92,0,10.71,10.71,0,0,0-.18,15.41A11.32,11.32,0,0,0,141.39,202.09Z" transform="translate(-68.69 -180.42)"/><rect class="cls-1" x="61.33" y="26.94" width="22.64" height="28.93"/><line class="cls-2" x1="4.12" y1="55.55" x2="243.48" y2="55.55"/><rect class="cls-2" x="25.52" y="55.47" width="21.53" height="30.1"/><rect class="cls-2" x="61.52" y="55.47" width="21.44" height="30.1"/><polygon class="cls-2" points="118.9 85.57 97.46 85.57 97.46 55.56 118.9 55.17 118.9 85.57"/><rect class="cls-2" x="128.71" y="55.18" width="21.38" height="30.4"/><path class="cls-2" d="M230.53,235.06c0,0.38-.05.76-0.05,1.15a28.41,28.41,0,0,0,8.81,21.22A30,30,0,0,0,261.05,266a30.81,30.81,0,0,0,19.31-6.73l-12.43-14.72a9.63,9.63,0,0,1-7,2.92,9.17,9.17,0,0,1-6.89-3.17c-1.91-2-2.64-4.6-2.64-8.32" transform="translate(-68.69 -180.42)"/><path class="cls-2" d="M257.78,235.19a7.75,7.75,0,0,0,.49,4.46h32.59q0.23-2.76.23-4c0-.19,0-0.38,1-0.57" transform="translate(-68.69 -180.42)"/><circle class="cls-1" cx="73.49" cy="235.89" r="4.8" transform="translate(-231.8 126.67) rotate(-89.44)"/><circle class="cls-1" cx="311.88" cy="236.29" r="4.8" transform="translate(3.89 365.44) rotate(-89.44)"/></svg>